
<svg width="500" height="100" viewBox="0 0 500 100" xmlns="http://www.w3.org/2000/svg">
  <g transform="translate(10, 10)">
    <!-- Green swoop -->
    <path d="M 25 75 C 5 75 5 40 25 15 C 35 5 45 0 55 5 C 40 15 35 25 35 40 C 35 50 45 60 60 65 C 50 75 35 75 25 75 Z" fill="#8bd3b6"/>
    <!-- Blue swoop -->
    <path d="M 75 5 C 95 5 95 40 75 65 C 65 75 55 80 45 75 C 60 65 65 55 65 40 C 65 30 55 20 40 15 C 50 5 65 5 75 5 Z" fill="#254f70"/>
  </g>
  <g transform="translate(120, 10)" fill="none" stroke="#254f70" stroke-width="8" stroke-linecap="square" stroke-linejoin="miter">
    <!-- S -->
    <path d="M 40 25 Q 40 20 35 20 L 5 20 Q 0 20 0 25 L 0 45 Q 0 50 5 50 L 35 50 Q 40 50 40 55 L 40 75 Q 40 80 35 80 L 5 80 Q 0 80 0 75" />
    <!-- T -->
    <path d="M 50 20 L 90 20 M 70 20 L 70 80" />
    <!-- A -->
    <path d="M 100 80 L 115 20 L 125 20 L 140 80 M 108 60 L 132 60" />
    <!-- C -->
    <path d="M 190 20 L 160 20 Q 155 20 155 25 L 155 75 Q 155 80 160 80 L 190 80" />
    <!-- K -->
    <path d="M 205 20 L 205 80 M 240 20 L 205 50 L 240 80" />
    <!-- L -->
    <path d="M 255 20 L 255 80 L 290 80" />
    <!-- Y -->
    <path d="M 305 20 L 325 50 L 345 20 M 325 50 L 325 80" />
  </g>
</svg>
